# xmcd
#
# Track frame offsets:
#	150
#	14717
#	27752
#	39095
#	50785
#	62892
#	75445
#	89900
#	100925
#	112450
#	126140
#	138092
#	149645
#	161600
#	175077
#	187030
#	197915
#	210527
#	223280
#	235215
#	249545
#	259725
#
# Disc length: 3658
#
# Revision: 4
# Processed by: cddbd v1.5.1PL0 Copyright (c) Steve Scherf et al.
# Submitted via: CDex 1.30Release
# Normalized: r3:TDELIM( - )
#
DISCID=520e4816
DTITLE=Various Artist - Kings of the Blues
DYEAR=1900
DGENRE=Blues
TTITLE0=Sweet Little Angel - B. B. King
TTITLE1=She Moves Me - Johnny 'Guitar' Watson
TTITLE2=Sufferin' Mind - Guitar Slim
TTITLE3=I'll Get Along Somehow - Frankie Lee Sims
TTITLE4=Blues Serenade - Babyface Turner
TTITLE5=On My Way Back Home - Flash Terry
TTITLE6=Odds Against Me - John Lee Hooker
TTITLE7=Sitting Here Thinking - T Bone Walker
TTITLE8=Problem Child - Mercy Dee
TTITLE9=Lonesome Old Feeling - Bumble Bee Slim
TTITLE10=I Tried - The Young Wolf
TTITLE11=Cotton Picker - Chuck Higgins and The Melotones
TTITLE12=Wild Hop - Pee Wee Crayton
TTITLE13=Worried About My Baby - Howling Wolf
TTITLE14=Tavern Lounge Boogie - Eddie 'Guitar' Burns
TTITLE15=Believe I'll Change Towns - Smokey Hogg
TTITLE16=Too Many Drivers - Lowell Fulson
TTITLE17=Yesterday - Clifton Chenier
TTITLE18=Lonesome Dog Blues - Lightnin' Hopkins
TTITLE19=Hard Times - Johnny Fuller
TTITLE20=Riding Mighty High - Floyd Dixon
TTITLE21=Please Find My Baby (aka Lost Woman Blues) - Elmore James
EXTD=ID3G:   0
EXTT0=
EXTT1=
EXTT2=
EXTT3=
EXTT4=
EXTT5=
EXTT6=
EXTT7=
EXTT8=
EXTT9=
EXTT10=
EXTT11=
EXTT12=
EXTT13=
EXTT14=
EXTT15=
EXTT16=
EXTT17=
EXTT18=
EXTT19=
EXTT20=
EXTT21=
PLAYORDER=
